<svg width="205" height="300" viewBox="0 0 205 300" fill="none" xmlns="http://www.w3.org/2000/svg">
<path d="M172.827 29.2105V32.2105H175.827H202V150V297H102.5H3V225V150V3H102.5H172.827V29.2105ZM178.827 26.2105V7.24922L188.291 16.7252L197.764 26.2105H178.827Z" fill="#002B36" stroke="#EEE8D5" stroke-width="6"/>
<path d="M99 6H180.5L199 24.7952V197H99V6Z" fill="#D33682"/>
<rect x="6" y="6" width="93" height="191" fill="#268BD2"/>
<path d="M174.583 3L202 30.452L202 31.7368H173.308V3H174.583Z" fill="#EEE8D5" stroke="#EEE8D5" stroke-width="6"/>
<path d="M82.0384 37.33C83.8064 40.934 84.6904 44.946 84.6904 49.366C84.6904 53.786 83.8064 57.798 82.0384 61.402C80.2704 64.938 77.9924 67.76 75.2044 69.868C69.5604 74.22 63.7124 76.396 57.6604 76.396H44.9104V87.922C44.9104 89.486 44.8424 90.676 44.7064 91.492C44.6384 92.24 44.3324 93.124 43.7884 94.144C42.8364 95.98 40.1844 96.898 35.8324 96.898C31.0724 96.898 28.2844 95.64 27.4684 93.124C27.0604 91.968 26.8564 90.2 26.8564 87.82V31.21C26.8564 29.646 26.8904 28.49 26.9584 27.742C27.0944 26.926 27.4344 26.008 27.9784 24.988C28.9304 23.152 31.5824 22.234 35.9344 22.234H57.7624C63.7464 22.234 69.5604 24.41 75.2044 28.762C77.9924 30.87 80.2704 33.726 82.0384 37.33ZM57.7624 58.342C59.8024 58.342 61.8084 57.594 63.7804 56.098C65.7524 54.602 66.7384 52.358 66.7384 49.366C66.7384 46.374 65.7524 44.13 63.7804 42.634C61.8084 41.07 59.7684 40.288 57.6604 40.288H44.9104V58.342H57.7624Z" fill="#002B36"/>
<path d="M118.469 86.494C116.701 84.318 115.817 82.38 115.817 80.68C115.817 78.912 117.279 76.6 120.203 73.744C121.903 72.112 123.705 71.296 125.609 71.296C127.513 71.296 130.165 72.996 133.565 76.396C134.517 77.552 135.877 78.674 137.645 79.762C139.413 80.782 141.045 81.292 142.541 81.292C148.865 81.292 152.027 78.708 152.027 73.54C152.027 71.976 151.143 70.684 149.375 69.664C147.675 68.576 145.533 67.794 142.949 67.318C140.365 66.842 137.577 66.094 134.585 65.074C131.593 63.986 128.805 62.728 126.221 61.3C123.637 59.872 121.461 57.628 119.693 54.568C117.993 51.44 117.143 47.7 117.143 43.348C117.143 37.364 119.353 32.162 123.773 27.742C128.261 23.254 134.347 21.01 142.031 21.01C146.111 21.01 149.817 21.554 153.149 22.642C156.549 23.662 158.895 24.716 160.187 25.804L162.737 27.742C164.845 29.714 165.899 31.38 165.899 32.74C165.899 34.1 165.083 35.97 163.451 38.35C161.139 41.75 158.759 43.45 156.311 43.45C154.883 43.45 153.115 42.77 151.007 41.41C150.803 41.274 150.395 40.934 149.783 40.39C149.239 39.846 148.729 39.404 148.253 39.064C146.825 38.18 144.989 37.738 142.745 37.738C140.569 37.738 138.733 38.282 137.237 39.37C135.809 40.39 135.095 41.852 135.095 43.756C135.095 45.592 135.945 47.088 137.645 48.244C139.413 49.4 141.589 50.182 144.173 50.59C146.757 50.998 149.579 51.644 152.639 52.528C155.699 53.344 158.521 54.364 161.105 55.588C163.689 56.812 165.831 58.954 167.531 62.014C169.299 65.006 170.183 68.712 170.183 73.132C170.183 77.552 169.299 81.462 167.531 84.862C165.763 88.194 163.451 90.778 160.595 92.614C155.087 96.218 149.205 98.02 142.949 98.02C139.753 98.02 136.727 97.646 133.871 96.898C131.015 96.082 128.703 95.096 126.935 93.94C123.331 91.764 120.815 89.656 119.387 87.616L118.469 86.494Z" fill="#002B36"/>
<path d="M54.6231 112.316C64.6871 112.316 73.4251 115.954 80.8371 123.23C88.2491 130.506 91.9551 139.55 91.9551 150.362C91.9551 161.106 88.4191 170.286 81.3471 177.902C74.2751 185.45 65.5711 189.224 55.2351 189.224C44.8991 189.224 36.0931 185.484 28.8171 178.004C21.6091 170.524 18.0051 161.616 18.0051 151.28C18.0051 145.636 19.0251 140.366 21.0651 135.47C23.1051 130.506 25.8251 126.358 29.2251 123.026C32.6251 119.694 36.5351 117.076 40.9551 115.172C45.3751 113.268 49.9311 112.316 54.6231 112.316ZM36.0591 150.77C36.0591 156.822 37.9971 161.752 41.8731 165.56C45.8171 169.3 50.2031 171.17 55.0311 171.17C59.8591 171.17 64.2111 169.334 68.0871 165.662C71.9631 161.99 73.9011 157.06 73.9011 150.872C73.9011 144.684 71.9291 139.72 67.9851 135.98C64.1091 132.24 59.7571 130.37 54.9291 130.37C50.1011 130.37 45.7491 132.274 41.8731 136.082C37.9971 139.822 36.0591 144.718 36.0591 150.77Z" fill="#002B36"/>
<path d="M114.672 113.132H171.384C173.56 113.132 175.158 113.404 176.178 113.948C177.198 114.424 177.878 115.206 178.218 116.294C178.558 117.382 178.728 118.81 178.728 120.578C178.728 122.346 178.558 123.774 178.218 124.862C177.878 125.882 177.3 126.596 176.484 127.004C175.26 127.616 173.526 127.922 171.282 127.922H151.8V179.228C151.8 180.792 151.732 181.948 151.596 182.696C151.528 183.444 151.222 184.328 150.678 185.348C150.202 186.3 149.318 186.98 148.026 187.388C146.734 187.796 145.034 188 142.926 188C140.818 188 139.118 187.796 137.826 187.388C136.602 186.98 135.718 186.3 135.174 185.348C134.698 184.328 134.392 183.444 134.256 182.696C134.188 181.88 134.154 180.69 134.154 179.126V127.922H114.57C112.394 127.922 110.796 127.684 109.776 127.208C108.756 126.664 108.076 125.848 107.736 124.76C107.396 123.672 107.226 122.244 107.226 120.476C107.226 118.708 107.396 117.314 107.736 116.294C108.076 115.206 108.654 114.458 109.47 114.05C110.694 113.438 112.428 113.132 114.672 113.132Z" fill="#002B36"/>
<path d="M44.6115 260.946H76.0275C77.5915 260.946 78.7475 261.014 79.4955 261.15C80.3115 261.218 81.2295 261.524 82.2495 262.068C84.0855 263.02 85.0035 265.672 85.0035 270.024C85.0035 274.784 83.7455 277.572 81.2295 278.388C80.0735 278.796 78.3055 279 75.9255 279H35.5335C30.7735 279 27.9855 277.708 27.1695 275.124C26.7615 274.036 26.5575 272.302 26.5575 269.922V213.21C26.5575 209.742 27.2035 207.396 28.4955 206.172C29.7875 204.88 32.2355 204.234 35.8395 204.234H76.0275C77.5915 204.234 78.7475 204.302 79.4955 204.438C80.3115 204.506 81.2295 204.812 82.2495 205.356C84.0855 206.308 85.0035 208.96 85.0035 213.312C85.0035 218.072 83.7455 220.86 81.2295 221.676C80.0735 222.084 78.3055 222.288 75.9255 222.288H44.6115V232.59H64.8075C66.3715 232.59 67.5275 232.658 68.2755 232.794C69.0915 232.862 70.0095 233.168 71.0295 233.712C72.8655 234.664 73.7835 237.316 73.7835 241.668C73.7835 246.428 72.4915 249.216 69.9075 250.032C68.7515 250.44 66.9835 250.644 64.6035 250.644H44.6115V260.946Z" fill="#657B83"/>
<path d="M44.6115 260.946H76.0275C77.5915 260.946 78.7475 261.014 79.4955 261.15C80.3115 261.218 81.2295 261.524 82.2495 262.068C84.0855 263.02 85.0035 265.672 85.0035 270.024C85.0035 274.784 83.7455 277.572 81.2295 278.388C80.0735 278.796 78.3055 279 75.9255 279H35.5335C30.7735 279 27.9855 277.708 27.1695 275.124C26.7615 274.036 26.5575 272.302 26.5575 269.922V213.21C26.5575 209.742 27.2035 207.396 28.4955 206.172C29.7875 204.88 32.2355 204.234 35.8395 204.234H76.0275C77.5915 204.234 78.7475 204.302 79.4955 204.438C80.3115 204.506 81.2295 204.812 82.2495 205.356C84.0855 206.308 85.0035 208.96 85.0035 213.312C85.0035 218.072 83.7455 220.86 81.2295 221.676C80.0735 222.084 78.3055 222.288 75.9255 222.288H44.6115V232.59H64.8075C66.3715 232.59 67.5275 232.658 68.2755 232.794C69.0915 232.862 70.0095 233.168 71.0295 233.712C72.8655 234.664 73.7835 237.316 73.7835 241.668C73.7835 246.428 72.4915 249.216 69.9075 250.032C68.7515 250.44 66.9835 250.644 64.6035 250.644H44.6115V260.946Z" fill="#657B83"/>
<path d="M44.6115 260.946H76.0275C77.5915 260.946 78.7475 261.014 79.4955 261.15C80.3115 261.218 81.2295 261.524 82.2495 262.068C84.0855 263.02 85.0035 265.672 85.0035 270.024C85.0035 274.784 83.7455 277.572 81.2295 278.388C80.0735 278.796 78.3055 279 75.9255 279H35.5335C30.7735 279 27.9855 277.708 27.1695 275.124C26.7615 274.036 26.5575 272.302 26.5575 269.922V213.21C26.5575 209.742 27.2035 207.396 28.4955 206.172C29.7875 204.88 32.2355 204.234 35.8395 204.234H76.0275C77.5915 204.234 78.7475 204.302 79.4955 204.438C80.3115 204.506 81.2295 204.812 82.2495 205.356C84.0855 206.308 85.0035 208.96 85.0035 213.312C85.0035 218.072 83.7455 220.86 81.2295 221.676C80.0735 222.084 78.3055 222.288 75.9255 222.288H44.6115V232.59H64.8075C66.3715 232.59 67.5275 232.658 68.2755 232.794C69.0915 232.862 70.0095 233.168 71.0295 233.712C72.8655 234.664 73.7835 237.316 73.7835 241.668C73.7835 246.428 72.4915 249.216 69.9075 250.032C68.7515 250.44 66.9835 250.644 64.6035 250.644H44.6115V260.946Z" fill="#EEE8D5"/>
<path d="M172.128 266.352C173.148 268.8 173.658 270.568 173.658 271.656C173.658 274.24 171.55 276.416 167.334 278.184C165.158 279.136 163.39 279.612 162.03 279.612C160.738 279.612 159.65 279.306 158.766 278.694C157.95 278.014 157.338 277.334 156.93 276.654C156.25 275.362 153.598 269.208 148.974 258.192L145.812 258.396H132.96V269.922C132.96 271.486 132.892 272.676 132.756 273.492C132.688 274.24 132.382 275.124 131.838 276.144C130.886 277.98 128.234 278.898 123.882 278.898C119.122 278.898 116.334 277.64 115.518 275.124C115.11 273.968 114.906 272.2 114.906 269.82V213.21C114.906 211.646 114.94 210.49 115.008 209.742C115.144 208.926 115.484 208.008 116.028 206.988C116.98 205.152 119.632 204.234 123.984 204.234H146.016C152 204.234 157.814 206.41 163.458 210.762C166.178 212.87 168.422 215.726 170.19 219.33C171.958 222.934 172.842 226.946 172.842 231.366C172.842 239.05 170.292 245.374 165.192 250.338C166.688 253.942 169 259.28 172.128 266.352ZM132.96 240.342H146.016C147.988 240.342 149.96 239.594 151.932 238.098C153.904 236.602 154.89 234.358 154.89 231.366C154.89 228.374 153.904 226.13 151.932 224.634C149.96 223.07 147.92 222.288 145.812 222.288H132.96V240.342Z" fill="#657B83"/>
<path d="M172.128 266.352C173.148 268.8 173.658 270.568 173.658 271.656C173.658 274.24 171.55 276.416 167.334 278.184C165.158 279.136 163.39 279.612 162.03 279.612C160.738 279.612 159.65 279.306 158.766 278.694C157.95 278.014 157.338 277.334 156.93 276.654C156.25 275.362 153.598 269.208 148.974 258.192L145.812 258.396H132.96V269.922C132.96 271.486 132.892 272.676 132.756 273.492C132.688 274.24 132.382 275.124 131.838 276.144C130.886 277.98 128.234 278.898 123.882 278.898C119.122 278.898 116.334 277.64 115.518 275.124C115.11 273.968 114.906 272.2 114.906 269.82V213.21C114.906 211.646 114.94 210.49 115.008 209.742C115.144 208.926 115.484 208.008 116.028 206.988C116.98 205.152 119.632 204.234 123.984 204.234H146.016C152 204.234 157.814 206.41 163.458 210.762C166.178 212.87 168.422 215.726 170.19 219.33C171.958 222.934 172.842 226.946 172.842 231.366C172.842 239.05 170.292 245.374 165.192 250.338C166.688 253.942 169 259.28 172.128 266.352ZM132.96 240.342H146.016C147.988 240.342 149.96 239.594 151.932 238.098C153.904 236.602 154.89 234.358 154.89 231.366C154.89 228.374 153.904 226.13 151.932 224.634C149.96 223.07 147.92 222.288 145.812 222.288H132.96V240.342Z" fill="#657B83"/>
<path d="M172.128 266.352C173.148 268.8 173.658 270.568 173.658 271.656C173.658 274.24 171.55 276.416 167.334 278.184C165.158 279.136 163.39 279.612 162.03 279.612C160.738 279.612 159.65 279.306 158.766 278.694C157.95 278.014 157.338 277.334 156.93 276.654C156.25 275.362 153.598 269.208 148.974 258.192L145.812 258.396H132.96V269.922C132.96 271.486 132.892 272.676 132.756 273.492C132.688 274.24 132.382 275.124 131.838 276.144C130.886 277.98 128.234 278.898 123.882 278.898C119.122 278.898 116.334 277.64 115.518 275.124C115.11 273.968 114.906 272.2 114.906 269.82V213.21C114.906 211.646 114.94 210.49 115.008 209.742C115.144 208.926 115.484 208.008 116.028 206.988C116.98 205.152 119.632 204.234 123.984 204.234H146.016C152 204.234 157.814 206.41 163.458 210.762C166.178 212.87 168.422 215.726 170.19 219.33C171.958 222.934 172.842 226.946 172.842 231.366C172.842 239.05 170.292 245.374 165.192 250.338C166.688 253.942 169 259.28 172.128 266.352ZM132.96 240.342H146.016C147.988 240.342 149.96 239.594 151.932 238.098C153.904 236.602 154.89 234.358 154.89 231.366C154.89 228.374 153.904 226.13 151.932 224.634C149.96 223.07 147.92 222.288 145.812 222.288H132.96V240.342Z" fill="#EEE8D5"/>
</svg>
