<svg width="1200" height="760" viewBox="0 0 1200 760" fill="none" xmlns="http://www.w3.org/2000/svg">
<rect width="1200" height="760" fill="#002B36"/>
<path d="M425.539 363.188V381H419.539V335.5H436.32C441.299 335.5 445.195 336.771 448.008 339.312C450.841 341.854 452.258 345.219 452.258 349.406C452.258 353.823 450.872 357.229 448.101 359.625C445.351 362 441.403 363.188 436.258 363.188H425.539ZM425.539 358.281H436.32C439.528 358.281 441.987 357.531 443.695 356.031C445.403 354.51 446.258 352.323 446.258 349.469C446.258 346.76 445.403 344.594 443.695 342.969C441.987 341.344 439.643 340.5 436.664 340.438H425.539V358.281ZM487.321 381.625C482.738 381.625 479.009 380.125 476.134 377.125C473.259 374.104 471.821 370.073 471.821 365.031V363.969C471.821 360.615 472.457 357.625 473.728 355C475.019 352.354 476.811 350.292 479.103 348.812C481.415 347.312 483.915 346.562 486.603 346.562C490.998 346.562 494.415 348.01 496.853 350.906C499.29 353.802 500.509 357.948 500.509 363.344V365.75H477.603C477.686 369.083 478.655 371.781 480.509 373.844C482.384 375.885 484.759 376.906 487.634 376.906C489.675 376.906 491.405 376.49 492.821 375.656C494.238 374.823 495.478 373.719 496.54 372.344L500.071 375.094C497.238 379.448 492.988 381.625 487.321 381.625ZM486.603 351.312C484.269 351.312 482.311 352.167 480.728 353.875C479.144 355.562 478.165 357.938 477.79 361H494.728V360.562C494.561 357.625 493.769 355.354 492.353 353.75C490.936 352.125 489.019 351.312 486.603 351.312ZM538.291 352.375C537.416 352.229 536.468 352.156 535.448 352.156C531.656 352.156 529.083 353.771 527.729 357V381H521.948V347.188H527.573L527.666 351.094C529.562 348.073 532.25 346.562 535.729 346.562C536.854 346.562 537.708 346.708 538.291 347V352.375ZM563.793 347.188L563.949 350.938C566.428 348.021 569.772 346.562 573.98 346.562C578.709 346.562 581.928 348.375 583.636 352C584.761 350.375 586.22 349.062 588.011 348.062C589.824 347.062 591.959 346.562 594.418 346.562C601.834 346.562 605.605 350.49 605.73 358.344V381H599.949V358.688C599.949 356.271 599.397 354.469 598.293 353.281C597.188 352.073 595.334 351.469 592.73 351.469C590.584 351.469 588.803 352.115 587.386 353.406C585.97 354.677 585.147 356.396 584.918 358.562V381H579.105V358.844C579.105 353.927 576.699 351.469 571.886 351.469C568.095 351.469 565.501 353.083 564.105 356.312V381H558.324V347.188H563.793ZM635.481 381H629.7V347.188H635.481V381ZM629.231 338.219C629.231 337.281 629.513 336.49 630.075 335.844C630.658 335.198 631.513 334.875 632.638 334.875C633.763 334.875 634.617 335.198 635.2 335.844C635.783 336.49 636.075 337.281 636.075 338.219C636.075 339.156 635.783 339.938 635.2 340.562C634.617 341.188 633.763 341.5 632.638 341.5C631.513 341.5 630.658 341.188 630.075 340.562C629.513 339.938 629.231 339.156 629.231 338.219ZM679.17 372.031C679.17 370.469 678.576 369.26 677.389 368.406C676.222 367.531 674.17 366.781 671.233 366.156C668.316 365.531 665.993 364.781 664.264 363.906C662.555 363.031 661.285 361.99 660.451 360.781C659.639 359.573 659.233 358.135 659.233 356.469C659.233 353.698 660.399 351.354 662.733 349.438C665.087 347.521 668.087 346.562 671.733 346.562C675.566 346.562 678.67 347.552 681.045 349.531C683.441 351.51 684.639 354.042 684.639 357.125H678.826C678.826 355.542 678.149 354.177 676.795 353.031C675.462 351.885 673.774 351.312 671.733 351.312C669.628 351.312 667.983 351.771 666.795 352.688C665.608 353.604 665.014 354.802 665.014 356.281C665.014 357.677 665.566 358.729 666.67 359.438C667.774 360.146 669.764 360.823 672.639 361.469C675.535 362.115 677.878 362.885 679.67 363.781C681.462 364.677 682.785 365.76 683.639 367.031C684.514 368.281 684.951 369.812 684.951 371.625C684.951 374.646 683.743 377.073 681.326 378.906C678.91 380.719 675.774 381.625 671.92 381.625C669.212 381.625 666.816 381.146 664.733 380.188C662.649 379.229 661.014 377.896 659.826 376.188C658.66 374.458 658.076 372.594 658.076 370.594H663.858C663.962 372.531 664.733 374.073 666.17 375.219C667.628 376.344 669.545 376.906 671.92 376.906C674.108 376.906 675.858 376.469 677.17 375.594C678.503 374.698 679.17 373.51 679.17 372.031ZM726.89 372.031C726.89 370.469 726.296 369.26 725.109 368.406C723.942 367.531 721.89 366.781 718.953 366.156C716.036 365.531 713.713 364.781 711.984 363.906C710.275 363.031 709.005 361.99 708.171 360.781C707.359 359.573 706.953 358.135 706.953 356.469C706.953 353.698 708.119 351.354 710.453 349.438C712.807 347.521 715.807 346.562 719.453 346.562C723.286 346.562 726.39 347.552 728.765 349.531C731.161 351.51 732.359 354.042 732.359 357.125H726.546C726.546 355.542 725.869 354.177 724.515 353.031C723.182 351.885 721.494 351.312 719.453 351.312C717.348 351.312 715.703 351.771 714.515 352.688C713.328 353.604 712.734 354.802 712.734 356.281C712.734 357.677 713.286 358.729 714.39 359.438C715.494 360.146 717.484 360.823 720.359 361.469C723.255 362.115 725.598 362.885 727.39 363.781C729.182 364.677 730.505 365.76 731.359 367.031C732.234 368.281 732.671 369.812 732.671 371.625C732.671 374.646 731.463 377.073 729.046 378.906C726.63 380.719 723.494 381.625 719.64 381.625C716.932 381.625 714.536 381.146 712.453 380.188C710.369 379.229 708.734 377.896 707.546 376.188C706.38 374.458 705.796 372.594 705.796 370.594H711.578C711.682 372.531 712.453 374.073 713.89 375.219C715.348 376.344 717.265 376.906 719.64 376.906C721.828 376.906 723.578 376.469 724.89 375.594C726.223 374.698 726.89 373.51 726.89 372.031ZM761.204 381H755.423V347.188H761.204V381ZM754.954 338.219C754.954 337.281 755.235 336.49 755.798 335.844C756.381 335.198 757.235 334.875 758.36 334.875C759.485 334.875 760.339 335.198 760.923 335.844C761.506 336.49 761.798 337.281 761.798 338.219C761.798 339.156 761.506 339.938 760.923 340.562C760.339 341.188 759.485 341.5 758.36 341.5C757.235 341.5 756.381 341.188 755.798 340.562C755.235 339.938 754.954 339.156 754.954 338.219ZM783.674 363.781C783.674 360.469 784.32 357.49 785.611 354.844C786.924 352.198 788.736 350.156 791.049 348.719C793.382 347.281 796.038 346.562 799.018 346.562C803.622 346.562 807.34 348.156 810.174 351.344C813.028 354.531 814.455 358.771 814.455 364.062V364.469C814.455 367.76 813.82 370.719 812.549 373.344C811.299 375.948 809.497 377.979 807.143 379.438C804.809 380.896 802.122 381.625 799.08 381.625C794.497 381.625 790.778 380.031 787.924 376.844C785.09 373.656 783.674 369.438 783.674 364.188V363.781ZM789.486 364.469C789.486 368.219 790.351 371.229 792.08 373.5C793.83 375.771 796.163 376.906 799.08 376.906C802.018 376.906 804.351 375.76 806.08 373.469C807.809 371.156 808.674 367.927 808.674 363.781C808.674 360.073 807.788 357.073 806.018 354.781C804.268 352.469 801.934 351.312 799.018 351.312C796.163 351.312 793.861 352.448 792.111 354.719C790.361 356.99 789.486 360.24 789.486 364.469ZM841.894 347.188L842.081 351.438C844.665 348.188 848.04 346.562 852.206 346.562C859.352 346.562 862.956 350.594 863.019 358.656V381H857.238V358.625C857.217 356.188 856.654 354.385 855.55 353.219C854.467 352.052 852.769 351.469 850.456 351.469C848.581 351.469 846.935 351.969 845.519 352.969C844.102 353.969 842.998 355.281 842.206 356.906V381H836.425V347.188H841.894ZM892.739 381H886.958V333H892.739V381ZM930.771 381.625C926.188 381.625 922.459 380.125 919.584 377.125C916.709 374.104 915.271 370.073 915.271 365.031V363.969C915.271 360.615 915.907 357.625 917.178 355C918.469 352.354 920.261 350.292 922.553 348.812C924.865 347.312 927.365 346.562 930.053 346.562C934.448 346.562 937.865 348.01 940.303 350.906C942.74 353.802 943.959 357.948 943.959 363.344V365.75H921.053C921.136 369.083 922.105 371.781 923.959 373.844C925.834 375.885 928.209 376.906 931.084 376.906C933.125 376.906 934.855 376.49 936.271 375.656C937.688 374.823 938.928 373.719 939.99 372.344L943.521 375.094C940.688 379.448 936.438 381.625 930.771 381.625ZM930.053 351.312C927.719 351.312 925.761 352.167 924.178 353.875C922.594 355.562 921.615 357.938 921.24 361H938.178V360.562C938.011 357.625 937.219 355.354 935.803 353.75C934.386 352.125 932.469 351.312 930.053 351.312ZM985.085 372.031C985.085 370.469 984.491 369.26 983.304 368.406C982.137 367.531 980.085 366.781 977.148 366.156C974.231 365.531 971.908 364.781 970.179 363.906C968.47 363.031 967.2 361.99 966.366 360.781C965.554 359.573 965.148 358.135 965.148 356.469C965.148 353.698 966.314 351.354 968.648 349.438C971.002 347.521 974.002 346.562 977.648 346.562C981.481 346.562 984.585 347.552 986.96 349.531C989.356 351.51 990.554 354.042 990.554 357.125H984.741C984.741 355.542 984.064 354.177 982.71 353.031C981.377 351.885 979.689 351.312 977.648 351.312C975.543 351.312 973.898 351.771 972.71 352.688C971.523 353.604 970.929 354.802 970.929 356.281C970.929 357.677 971.481 358.729 972.585 359.438C973.689 360.146 975.679 360.823 978.554 361.469C981.45 362.115 983.793 362.885 985.585 363.781C987.377 364.677 988.7 365.76 989.554 367.031C990.429 368.281 990.866 369.812 990.866 371.625C990.866 374.646 989.658 377.073 987.241 378.906C984.825 380.719 981.689 381.625 977.835 381.625C975.127 381.625 972.731 381.146 970.648 380.188C968.564 379.229 966.929 377.896 965.741 376.188C964.575 374.458 963.991 372.594 963.991 370.594H969.773C969.877 372.531 970.648 374.073 972.085 375.219C973.543 376.344 975.46 376.906 977.835 376.906C980.023 376.906 981.773 376.469 983.085 375.594C984.418 374.698 985.085 373.51 985.085 372.031ZM1032.8 372.031C1032.8 370.469 1032.21 369.26 1031.02 368.406C1029.86 367.531 1027.8 366.781 1024.87 366.156C1021.95 365.531 1019.63 364.781 1017.9 363.906C1016.19 363.031 1014.92 361.99 1014.09 360.781C1013.27 359.573 1012.87 358.135 1012.87 356.469C1012.87 353.698 1014.03 351.354 1016.37 349.438C1018.72 347.521 1021.72 346.562 1025.37 346.562C1029.2 346.562 1032.3 347.552 1034.68 349.531C1037.08 351.51 1038.27 354.042 1038.27 357.125H1032.46C1032.46 355.542 1031.78 354.177 1030.43 353.031C1029.1 351.885 1027.41 351.312 1025.37 351.312C1023.26 351.312 1021.62 351.771 1020.43 352.688C1019.24 353.604 1018.65 354.802 1018.65 356.281C1018.65 357.677 1019.2 358.729 1020.3 359.438C1021.41 360.146 1023.4 360.823 1026.27 361.469C1029.17 362.115 1031.51 362.885 1033.3 363.781C1035.1 364.677 1036.42 365.76 1037.27 367.031C1038.15 368.281 1038.59 369.812 1038.59 371.625C1038.59 374.646 1037.38 377.073 1034.96 378.906C1032.54 380.719 1029.41 381.625 1025.55 381.625C1022.85 381.625 1020.45 381.146 1018.37 380.188C1016.28 379.229 1014.65 377.896 1013.46 376.188C1012.29 374.458 1011.71 372.594 1011.71 370.594H1017.49C1017.6 372.531 1018.37 374.073 1019.8 375.219C1021.26 376.344 1023.18 376.906 1025.55 376.906C1027.74 376.906 1029.49 376.469 1030.8 375.594C1032.14 374.698 1032.8 373.51 1032.8 372.031ZM490.415 436.031C490.415 434.469 489.821 433.26 488.634 432.406C487.467 431.531 485.415 430.781 482.478 430.156C479.561 429.531 477.238 428.781 475.509 427.906C473.8 427.031 472.53 425.99 471.696 424.781C470.884 423.573 470.478 422.135 470.478 420.469C470.478 417.698 471.644 415.354 473.978 413.438C476.332 411.521 479.332 410.562 482.978 410.562C486.811 410.562 489.915 411.552 492.29 413.531C494.686 415.51 495.884 418.042 495.884 421.125H490.071C490.071 419.542 489.394 418.177 488.04 417.031C486.707 415.885 485.019 415.312 482.978 415.312C480.873 415.312 479.228 415.771 478.04 416.688C476.853 417.604 476.259 418.802 476.259 420.281C476.259 421.677 476.811 422.729 477.915 423.438C479.019 424.146 481.009 424.823 483.884 425.469C486.78 426.115 489.123 426.885 490.915 427.781C492.707 428.677 494.03 429.76 494.884 431.031C495.759 432.281 496.196 433.812 496.196 435.625C496.196 438.646 494.988 441.073 492.571 442.906C490.155 444.719 487.019 445.625 483.165 445.625C480.457 445.625 478.061 445.146 475.978 444.188C473.894 443.229 472.259 441.896 471.071 440.188C469.905 438.458 469.321 436.594 469.321 434.594H475.103C475.207 436.531 475.978 438.073 477.415 439.219C478.873 440.344 480.79 440.906 483.165 440.906C485.353 440.906 487.103 440.469 488.415 439.594C489.748 438.698 490.415 437.51 490.415 436.031ZM516.916 427.781C516.916 424.469 517.562 421.49 518.854 418.844C520.166 416.198 521.979 414.156 524.291 412.719C526.625 411.281 529.281 410.562 532.26 410.562C536.864 410.562 540.583 412.156 543.416 415.344C546.27 418.531 547.698 422.771 547.698 428.062V428.469C547.698 431.76 547.062 434.719 545.791 437.344C544.541 439.948 542.739 441.979 540.385 443.438C538.052 444.896 535.364 445.625 532.323 445.625C527.739 445.625 524.02 444.031 521.166 440.844C518.333 437.656 516.916 433.438 516.916 428.188V427.781ZM522.729 428.469C522.729 432.219 523.593 435.229 525.323 437.5C527.073 439.771 529.406 440.906 532.323 440.906C535.26 440.906 537.593 439.76 539.323 437.469C541.052 435.156 541.916 431.927 541.916 427.781C541.916 424.073 541.031 421.073 539.26 418.781C537.51 416.469 535.177 415.312 532.26 415.312C529.406 415.312 527.104 416.448 525.354 418.719C523.604 420.99 522.729 424.24 522.729 428.469ZM583.23 440.906C585.293 440.906 587.095 440.281 588.636 439.031C590.178 437.781 591.032 436.219 591.199 434.344H596.668C596.563 436.281 595.897 438.125 594.668 439.875C593.438 441.625 591.793 443.021 589.73 444.062C587.688 445.104 585.522 445.625 583.23 445.625C578.626 445.625 574.959 444.094 572.23 441.031C569.522 437.948 568.168 433.74 568.168 428.406V427.438C568.168 424.146 568.772 421.219 569.98 418.656C571.188 416.094 572.918 414.104 575.168 412.688C577.438 411.271 580.115 410.562 583.199 410.562C586.99 410.562 590.136 411.698 592.636 413.969C595.157 416.24 596.501 419.188 596.668 422.812H591.199C591.032 420.625 590.199 418.833 588.699 417.438C587.22 416.021 585.386 415.312 583.199 415.312C580.261 415.312 577.98 416.375 576.355 418.5C574.751 420.604 573.949 423.656 573.949 427.656V428.75C573.949 432.646 574.751 435.646 576.355 437.75C577.959 439.854 580.251 440.906 583.23 440.906ZM624.169 445H618.388V411.188H624.169V445ZM617.919 402.219C617.919 401.281 618.2 400.49 618.763 399.844C619.346 399.198 620.2 398.875 621.325 398.875C622.45 398.875 623.304 399.198 623.888 399.844C624.471 400.49 624.763 401.281 624.763 402.219C624.763 403.156 624.471 403.938 623.888 404.562C623.304 405.188 622.45 405.5 621.325 405.5C620.2 405.5 619.346 405.188 618.763 404.562C618.2 403.938 617.919 403.156 617.919 402.219ZM669.045 445C668.712 444.333 668.441 443.146 668.233 441.438C665.545 444.229 662.337 445.625 658.608 445.625C655.274 445.625 652.535 444.688 650.389 442.812C648.264 440.917 647.201 438.521 647.201 435.625C647.201 432.104 648.535 429.375 651.201 427.438C653.889 425.479 657.66 424.5 662.514 424.5H668.139V421.844C668.139 419.823 667.535 418.219 666.326 417.031C665.118 415.823 663.337 415.219 660.983 415.219C658.92 415.219 657.191 415.74 655.795 416.781C654.399 417.823 653.701 419.083 653.701 420.562H647.889C647.889 418.875 648.483 417.25 649.67 415.688C650.878 414.104 652.503 412.854 654.545 411.938C656.608 411.021 658.868 410.562 661.326 410.562C665.222 410.562 668.274 411.542 670.483 413.5C672.691 415.438 673.837 418.115 673.92 421.531V437.094C673.92 440.198 674.316 442.667 675.108 444.5V445H669.045ZM659.451 440.594C661.264 440.594 662.983 440.125 664.608 439.188C666.233 438.25 667.41 437.031 668.139 435.531V428.594H663.608C656.524 428.594 652.983 430.667 652.983 434.812C652.983 436.625 653.587 438.042 654.795 439.062C656.003 440.083 657.555 440.594 659.451 440.594ZM703.984 445H698.203V397H703.984V445ZM764.018 411.188L764.174 414.938C766.653 412.021 769.997 410.562 774.205 410.562C778.934 410.562 782.153 412.375 783.861 416C784.986 414.375 786.445 413.062 788.236 412.062C790.049 411.062 792.184 410.562 794.643 410.562C802.059 410.562 805.83 414.49 805.955 422.344V445H800.174V422.688C800.174 420.271 799.622 418.469 798.518 417.281C797.413 416.073 795.559 415.469 792.955 415.469C790.809 415.469 789.028 416.115 787.611 417.406C786.195 418.677 785.372 420.396 785.143 422.562V445H779.33V422.844C779.33 417.927 776.924 415.469 772.111 415.469C768.32 415.469 765.726 417.083 764.33 420.312V445H758.549V411.188H764.018ZM843.456 445.625C838.873 445.625 835.144 444.125 832.269 441.125C829.394 438.104 827.956 434.073 827.956 429.031V427.969C827.956 424.615 828.592 421.625 829.863 419C831.154 416.354 832.946 414.292 835.238 412.812C837.55 411.312 840.05 410.562 842.738 410.562C847.133 410.562 850.55 412.01 852.988 414.906C855.425 417.802 856.644 421.948 856.644 427.344V429.75H833.738C833.821 433.083 834.79 435.781 836.644 437.844C838.519 439.885 840.894 440.906 843.769 440.906C845.81 440.906 847.54 440.49 848.956 439.656C850.373 438.823 851.613 437.719 852.675 436.344L856.206 439.094C853.373 443.448 849.123 445.625 843.456 445.625ZM842.738 415.312C840.404 415.312 838.446 416.167 836.863 417.875C835.279 419.562 834.3 421.938 833.925 425H850.863V424.562C850.696 421.625 849.904 419.354 848.488 417.75C847.071 416.125 845.154 415.312 842.738 415.312ZM876.676 427.812C876.676 422.625 877.905 418.458 880.364 415.312C882.822 412.146 886.041 410.562 890.02 410.562C893.978 410.562 897.114 411.917 899.426 414.625V397H905.208V445H899.895L899.614 441.375C897.301 444.208 894.083 445.625 889.958 445.625C886.041 445.625 882.843 444.021 880.364 440.812C877.905 437.604 876.676 433.417 876.676 428.25V427.812ZM882.458 428.469C882.458 432.302 883.249 435.302 884.833 437.469C886.416 439.635 888.603 440.719 891.395 440.719C895.062 440.719 897.739 439.073 899.426 435.781V420.25C897.697 417.062 895.041 415.469 891.458 415.469C888.624 415.469 886.416 416.562 884.833 418.75C883.249 420.938 882.458 424.177 882.458 428.469ZM935.209 445H929.428V411.188H935.209V445ZM928.959 402.219C928.959 401.281 929.24 400.49 929.803 399.844C930.386 399.198 931.24 398.875 932.365 398.875C933.49 398.875 934.344 399.198 934.928 399.844C935.511 400.49 935.803 401.281 935.803 402.219C935.803 403.156 935.511 403.938 934.928 404.562C934.344 405.188 933.49 405.5 932.365 405.5C931.24 405.5 930.386 405.188 929.803 404.562C929.24 403.938 928.959 403.156 928.959 402.219ZM980.085 445C979.752 444.333 979.481 443.146 979.273 441.438C976.585 444.229 973.377 445.625 969.648 445.625C966.314 445.625 963.575 444.688 961.429 442.812C959.304 440.917 958.241 438.521 958.241 435.625C958.241 432.104 959.575 429.375 962.241 427.438C964.929 425.479 968.7 424.5 973.554 424.5H979.179V421.844C979.179 419.823 978.575 418.219 977.366 417.031C976.158 415.823 974.377 415.219 972.023 415.219C969.96 415.219 968.231 415.74 966.835 416.781C965.439 417.823 964.741 419.083 964.741 420.562H958.929C958.929 418.875 959.523 417.25 960.71 415.688C961.918 414.104 963.543 412.854 965.585 411.938C967.648 411.021 969.908 410.562 972.366 410.562C976.262 410.562 979.314 411.542 981.523 413.5C983.731 415.438 984.877 418.115 984.96 421.531V437.094C984.96 440.198 985.356 442.667 986.148 444.5V445H980.085ZM970.491 440.594C972.304 440.594 974.023 440.125 975.648 439.188C977.273 438.25 978.45 437.031 979.179 435.531V428.594H974.648C967.564 428.594 964.023 430.667 964.023 434.812C964.023 436.625 964.627 438.042 965.835 439.062C967.043 440.083 968.595 440.594 970.491 440.594Z" fill="#EEE8D5"/>
<path d="M329.827 259.211V262.211H332.827H359V380V527H259.5H160V455V380V233H259.5H329.827V259.211ZM335.827 256.211V237.249L345.291 246.725L354.764 256.211H335.827Z" fill="#002B36" stroke="#EEE8D5" stroke-width="6"/>
<path d="M256 236H337.5L356 254.795V427H256V236Z" fill="#D33682"/>
<rect x="163" y="236" width="93" height="191" fill="#268BD2"/>
<path d="M331.583 233L359 260.452L359 261.737H330.308V233H331.583Z" fill="#EEE8D5" stroke="#EEE8D5" stroke-width="6"/>
<path d="M239.038 267.33C240.806 270.934 241.69 274.946 241.69 279.366C241.69 283.786 240.806 287.798 239.038 291.402C237.27 294.938 234.992 297.76 232.204 299.868C226.56 304.22 220.712 306.396 214.66 306.396H201.91V317.922C201.91 319.486 201.842 320.676 201.706 321.492C201.638 322.24 201.332 323.124 200.788 324.144C199.836 325.98 197.184 326.898 192.832 326.898C188.072 326.898 185.284 325.64 184.468 323.124C184.06 321.968 183.856 320.2 183.856 317.82V261.21C183.856 259.646 183.89 258.49 183.958 257.742C184.094 256.926 184.434 256.008 184.978 254.988C185.93 253.152 188.582 252.234 192.934 252.234H214.762C220.746 252.234 226.56 254.41 232.204 258.762C234.992 260.87 237.27 263.726 239.038 267.33ZM214.762 288.342C216.802 288.342 218.808 287.594 220.78 286.098C222.752 284.602 223.738 282.358 223.738 279.366C223.738 276.374 222.752 274.13 220.78 272.634C218.808 271.07 216.768 270.288 214.66 270.288H201.91V288.342H214.762Z" fill="#002B36"/>
<path d="M275.469 316.494C273.701 314.318 272.817 312.38 272.817 310.68C272.817 308.912 274.279 306.6 277.203 303.744C278.903 302.112 280.705 301.296 282.609 301.296C284.513 301.296 287.165 302.996 290.565 306.396C291.517 307.552 292.877 308.674 294.645 309.762C296.413 310.782 298.045 311.292 299.541 311.292C305.865 311.292 309.027 308.708 309.027 303.54C309.027 301.976 308.143 300.684 306.375 299.664C304.675 298.576 302.533 297.794 299.949 297.318C297.365 296.842 294.577 296.094 291.585 295.074C288.593 293.986 285.805 292.728 283.221 291.3C280.637 289.872 278.461 287.628 276.693 284.568C274.993 281.44 274.143 277.7 274.143 273.348C274.143 267.364 276.353 262.162 280.773 257.742C285.261 253.254 291.347 251.01 299.031 251.01C303.111 251.01 306.817 251.554 310.149 252.642C313.549 253.662 315.895 254.716 317.187 255.804L319.737 257.742C321.845 259.714 322.899 261.38 322.899 262.74C322.899 264.1 322.083 265.97 320.451 268.35C318.139 271.75 315.759 273.45 313.311 273.45C311.883 273.45 310.115 272.77 308.007 271.41C307.803 271.274 307.395 270.934 306.783 270.39C306.239 269.846 305.729 269.404 305.253 269.064C303.825 268.18 301.989 267.738 299.745 267.738C297.569 267.738 295.733 268.282 294.237 269.37C292.809 270.39 292.095 271.852 292.095 273.756C292.095 275.592 292.945 277.088 294.645 278.244C296.413 279.4 298.589 280.182 301.173 280.59C303.757 280.998 306.579 281.644 309.639 282.528C312.699 283.344 315.521 284.364 318.105 285.588C320.689 286.812 322.831 288.954 324.531 292.014C326.299 295.006 327.183 298.712 327.183 303.132C327.183 307.552 326.299 311.462 324.531 314.862C322.763 318.194 320.451 320.778 317.595 322.614C312.087 326.218 306.205 328.02 299.949 328.02C296.753 328.02 293.727 327.646 290.871 326.898C288.015 326.082 285.703 325.096 283.935 323.94C280.331 321.764 277.815 319.656 276.387 317.616L275.469 316.494Z" fill="#002B36"/>
<path d="M211.623 342.316C221.687 342.316 230.425 345.954 237.837 353.23C245.249 360.506 248.955 369.55 248.955 380.362C248.955 391.106 245.419 400.286 238.347 407.902C231.275 415.45 222.571 419.224 212.235 419.224C201.899 419.224 193.093 415.484 185.817 408.004C178.609 400.524 175.005 391.616 175.005 381.28C175.005 375.636 176.025 370.366 178.065 365.47C180.105 360.506 182.825 356.358 186.225 353.026C189.625 349.694 193.535 347.076 197.955 345.172C202.375 343.268 206.931 342.316 211.623 342.316ZM193.059 380.77C193.059 386.822 194.997 391.752 198.873 395.56C202.817 399.3 207.203 401.17 212.031 401.17C216.859 401.17 221.211 399.334 225.087 395.662C228.963 391.99 230.901 387.06 230.901 380.872C230.901 374.684 228.929 369.72 224.985 365.98C221.109 362.24 216.757 360.37 211.929 360.37C207.101 360.37 202.749 362.274 198.873 366.082C194.997 369.822 193.059 374.718 193.059 380.77Z" fill="#002B36"/>
<path d="M271.672 343.132H328.384C330.56 343.132 332.158 343.404 333.178 343.948C334.198 344.424 334.878 345.206 335.218 346.294C335.558 347.382 335.728 348.81 335.728 350.578C335.728 352.346 335.558 353.774 335.218 354.862C334.878 355.882 334.3 356.596 333.484 357.004C332.26 357.616 330.526 357.922 328.282 357.922H308.8V409.228C308.8 410.792 308.732 411.948 308.596 412.696C308.528 413.444 308.222 414.328 307.678 415.348C307.202 416.3 306.318 416.98 305.026 417.388C303.734 417.796 302.034 418 299.926 418C297.818 418 296.118 417.796 294.826 417.388C293.602 416.98 292.718 416.3 292.174 415.348C291.698 414.328 291.392 413.444 291.256 412.696C291.188 411.88 291.154 410.69 291.154 409.126V357.922H271.57C269.394 357.922 267.796 357.684 266.776 357.208C265.756 356.664 265.076 355.848 264.736 354.76C264.396 353.672 264.226 352.244 264.226 350.476C264.226 348.708 264.396 347.314 264.736 346.294C265.076 345.206 265.654 344.458 266.47 344.05C267.694 343.438 269.428 343.132 271.672 343.132Z" fill="#002B36"/>
<path d="M201.612 490.946H233.028C234.592 490.946 235.748 491.014 236.496 491.15C237.312 491.218 238.23 491.524 239.25 492.068C241.086 493.02 242.004 495.672 242.004 500.024C242.004 504.784 240.746 507.572 238.23 508.388C237.074 508.796 235.306 509 232.926 509H192.534C187.774 509 184.986 507.708 184.17 505.124C183.762 504.036 183.558 502.302 183.558 499.922V443.21C183.558 439.742 184.204 437.396 185.496 436.172C186.788 434.88 189.236 434.234 192.84 434.234H233.028C234.592 434.234 235.748 434.302 236.496 434.438C237.312 434.506 238.23 434.812 239.25 435.356C241.086 436.308 242.004 438.96 242.004 443.312C242.004 448.072 240.746 450.86 238.23 451.676C237.074 452.084 235.306 452.288 232.926 452.288H201.612V462.59H221.808C223.372 462.59 224.528 462.658 225.276 462.794C226.092 462.862 227.01 463.168 228.03 463.712C229.866 464.664 230.784 467.316 230.784 471.668C230.784 476.428 229.492 479.216 226.908 480.032C225.752 480.44 223.984 480.644 221.604 480.644H201.612V490.946Z" fill="#657B83"/>
<path d="M201.612 490.946H233.028C234.592 490.946 235.748 491.014 236.496 491.15C237.312 491.218 238.23 491.524 239.25 492.068C241.086 493.02 242.004 495.672 242.004 500.024C242.004 504.784 240.746 507.572 238.23 508.388C237.074 508.796 235.306 509 232.926 509H192.534C187.774 509 184.986 507.708 184.17 505.124C183.762 504.036 183.558 502.302 183.558 499.922V443.21C183.558 439.742 184.204 437.396 185.496 436.172C186.788 434.88 189.236 434.234 192.84 434.234H233.028C234.592 434.234 235.748 434.302 236.496 434.438C237.312 434.506 238.23 434.812 239.25 435.356C241.086 436.308 242.004 438.96 242.004 443.312C242.004 448.072 240.746 450.86 238.23 451.676C237.074 452.084 235.306 452.288 232.926 452.288H201.612V462.59H221.808C223.372 462.59 224.528 462.658 225.276 462.794C226.092 462.862 227.01 463.168 228.03 463.712C229.866 464.664 230.784 467.316 230.784 471.668C230.784 476.428 229.492 479.216 226.908 480.032C225.752 480.44 223.984 480.644 221.604 480.644H201.612V490.946Z" fill="#657B83"/>
<path d="M201.612 490.946H233.028C234.592 490.946 235.748 491.014 236.496 491.15C237.312 491.218 238.23 491.524 239.25 492.068C241.086 493.02 242.004 495.672 242.004 500.024C242.004 504.784 240.746 507.572 238.23 508.388C237.074 508.796 235.306 509 232.926 509H192.534C187.774 509 184.986 507.708 184.17 505.124C183.762 504.036 183.558 502.302 183.558 499.922V443.21C183.558 439.742 184.204 437.396 185.496 436.172C186.788 434.88 189.236 434.234 192.84 434.234H233.028C234.592 434.234 235.748 434.302 236.496 434.438C237.312 434.506 238.23 434.812 239.25 435.356C241.086 436.308 242.004 438.96 242.004 443.312C242.004 448.072 240.746 450.86 238.23 451.676C237.074 452.084 235.306 452.288 232.926 452.288H201.612V462.59H221.808C223.372 462.59 224.528 462.658 225.276 462.794C226.092 462.862 227.01 463.168 228.03 463.712C229.866 464.664 230.784 467.316 230.784 471.668C230.784 476.428 229.492 479.216 226.908 480.032C225.752 480.44 223.984 480.644 221.604 480.644H201.612V490.946Z" fill="#EEE8D5"/>
<path d="M329.128 496.352C330.148 498.8 330.658 500.568 330.658 501.656C330.658 504.24 328.55 506.416 324.334 508.184C322.158 509.136 320.39 509.612 319.03 509.612C317.738 509.612 316.65 509.306 315.766 508.694C314.95 508.014 314.338 507.334 313.93 506.654C313.25 505.362 310.598 499.208 305.974 488.192L302.812 488.396H289.96V499.922C289.96 501.486 289.892 502.676 289.756 503.492C289.688 504.24 289.382 505.124 288.838 506.144C287.886 507.98 285.234 508.898 280.882 508.898C276.122 508.898 273.334 507.64 272.518 505.124C272.11 503.968 271.906 502.2 271.906 499.82V443.21C271.906 441.646 271.94 440.49 272.008 439.742C272.144 438.926 272.484 438.008 273.028 436.988C273.98 435.152 276.632 434.234 280.984 434.234H303.016C309 434.234 314.814 436.41 320.458 440.762C323.178 442.87 325.422 445.726 327.19 449.33C328.958 452.934 329.842 456.946 329.842 461.366C329.842 469.05 327.292 475.374 322.192 480.338C323.688 483.942 326 489.28 329.128 496.352ZM289.96 470.342H303.016C304.988 470.342 306.96 469.594 308.932 468.098C310.904 466.602 311.89 464.358 311.89 461.366C311.89 458.374 310.904 456.13 308.932 454.634C306.96 453.07 304.92 452.288 302.812 452.288H289.96V470.342Z" fill="#657B83"/>
<path d="M329.128 496.352C330.148 498.8 330.658 500.568 330.658 501.656C330.658 504.24 328.55 506.416 324.334 508.184C322.158 509.136 320.39 509.612 319.03 509.612C317.738 509.612 316.65 509.306 315.766 508.694C314.95 508.014 314.338 507.334 313.93 506.654C313.25 505.362 310.598 499.208 305.974 488.192L302.812 488.396H289.96V499.922C289.96 501.486 289.892 502.676 289.756 503.492C289.688 504.24 289.382 505.124 288.838 506.144C287.886 507.98 285.234 508.898 280.882 508.898C276.122 508.898 273.334 507.64 272.518 505.124C272.11 503.968 271.906 502.2 271.906 499.82V443.21C271.906 441.646 271.94 440.49 272.008 439.742C272.144 438.926 272.484 438.008 273.028 436.988C273.98 435.152 276.632 434.234 280.984 434.234H303.016C309 434.234 314.814 436.41 320.458 440.762C323.178 442.87 325.422 445.726 327.19 449.33C328.958 452.934 329.842 456.946 329.842 461.366C329.842 469.05 327.292 475.374 322.192 480.338C323.688 483.942 326 489.28 329.128 496.352ZM289.96 470.342H303.016C304.988 470.342 306.96 469.594 308.932 468.098C310.904 466.602 311.89 464.358 311.89 461.366C311.89 458.374 310.904 456.13 308.932 454.634C306.96 453.07 304.92 452.288 302.812 452.288H289.96V470.342Z" fill="#657B83"/>
<path d="M329.128 496.352C330.148 498.8 330.658 500.568 330.658 501.656C330.658 504.24 328.55 506.416 324.334 508.184C322.158 509.136 320.39 509.612 319.03 509.612C317.738 509.612 316.65 509.306 315.766 508.694C314.95 508.014 314.338 507.334 313.93 506.654C313.25 505.362 310.598 499.208 305.974 488.192L302.812 488.396H289.96V499.922C289.96 501.486 289.892 502.676 289.756 503.492C289.688 504.24 289.382 505.124 288.838 506.144C287.886 507.98 285.234 508.898 280.882 508.898C276.122 508.898 273.334 507.64 272.518 505.124C272.11 503.968 271.906 502.2 271.906 499.82V443.21C271.906 441.646 271.94 440.49 272.008 439.742C272.144 438.926 272.484 438.008 273.028 436.988C273.98 435.152 276.632 434.234 280.984 434.234H303.016C309 434.234 314.814 436.41 320.458 440.762C323.178 442.87 325.422 445.726 327.19 449.33C328.958 452.934 329.842 456.946 329.842 461.366C329.842 469.05 327.292 475.374 322.192 480.338C323.688 483.942 326 489.28 329.128 496.352ZM289.96 470.342H303.016C304.988 470.342 306.96 469.594 308.932 468.098C310.904 466.602 311.89 464.358 311.89 461.366C311.89 458.374 310.904 456.13 308.932 454.634C306.96 453.07 304.92 452.288 302.812 452.288H289.96V470.342Z" fill="#EEE8D5"/>
</svg>
