<svg width="400" height="400" viewBox="0 0 400 400" fill="none" xmlns="http://www.w3.org/2000/svg">
<rect width="400" height="400" fill="#EEE8D5"/>
<path d="M269.827 79.2105V82.2105H272.827H299V200V347H199.5H100V275V200V53H199.5H269.827V79.2105ZM275.827 76.2105V57.2492L285.291 66.7252L294.764 76.2105H275.827Z" fill="#002B36" stroke="#EEE8D5" stroke-width="6"/>
<path d="M196 56H277.5L296 74.7952V247H196V56Z" fill="#D33682"/>
<rect x="103" y="56" width="93" height="191" fill="#268BD2"/>
<path d="M271.583 53L299 80.452L299 81.7368H270.308V53H271.583Z" fill="#EEE8D5" stroke="#EEE8D5" stroke-width="6"/>
<path d="M179.038 87.33C180.806 90.934 181.69 94.946 181.69 99.366C181.69 103.786 180.806 107.798 179.038 111.402C177.27 114.938 174.992 117.76 172.204 119.868C166.56 124.22 160.712 126.396 154.66 126.396H141.91V137.922C141.91 139.486 141.842 140.676 141.706 141.492C141.638 142.24 141.332 143.124 140.788 144.144C139.836 145.98 137.184 146.898 132.832 146.898C128.072 146.898 125.284 145.64 124.468 143.124C124.06 141.968 123.856 140.2 123.856 137.82V81.21C123.856 79.646 123.89 78.49 123.958 77.742C124.094 76.926 124.434 76.008 124.978 74.988C125.93 73.152 128.582 72.234 132.934 72.234H154.762C160.746 72.234 166.56 74.41 172.204 78.762C174.992 80.87 177.27 83.726 179.038 87.33ZM154.762 108.342C156.802 108.342 158.808 107.594 160.78 106.098C162.752 104.602 163.738 102.358 163.738 99.366C163.738 96.374 162.752 94.13 160.78 92.634C158.808 91.07 156.768 90.288 154.66 90.288H141.91V108.342H154.762Z" fill="#002B36"/>
<path d="M215.469 136.494C213.701 134.318 212.817 132.38 212.817 130.68C212.817 128.912 214.279 126.6 217.203 123.744C218.903 122.112 220.705 121.296 222.609 121.296C224.513 121.296 227.165 122.996 230.565 126.396C231.517 127.552 232.877 128.674 234.645 129.762C236.413 130.782 238.045 131.292 239.541 131.292C245.865 131.292 249.027 128.708 249.027 123.54C249.027 121.976 248.143 120.684 246.375 119.664C244.675 118.576 242.533 117.794 239.949 117.318C237.365 116.842 234.577 116.094 231.585 115.074C228.593 113.986 225.805 112.728 223.221 111.3C220.637 109.872 218.461 107.628 216.693 104.568C214.993 101.44 214.143 97.7 214.143 93.348C214.143 87.364 216.353 82.162 220.773 77.742C225.261 73.254 231.347 71.01 239.031 71.01C243.111 71.01 246.817 71.554 250.149 72.642C253.549 73.662 255.895 74.716 257.187 75.804L259.737 77.742C261.845 79.714 262.899 81.38 262.899 82.74C262.899 84.1 262.083 85.97 260.451 88.35C258.139 91.75 255.759 93.45 253.311 93.45C251.883 93.45 250.115 92.77 248.007 91.41C247.803 91.274 247.395 90.934 246.783 90.39C246.239 89.846 245.729 89.404 245.253 89.064C243.825 88.18 241.989 87.738 239.745 87.738C237.569 87.738 235.733 88.282 234.237 89.37C232.809 90.39 232.095 91.852 232.095 93.756C232.095 95.592 232.945 97.088 234.645 98.244C236.413 99.4 238.589 100.182 241.173 100.59C243.757 100.998 246.579 101.644 249.639 102.528C252.699 103.344 255.521 104.364 258.105 105.588C260.689 106.812 262.831 108.954 264.531 112.014C266.299 115.006 267.183 118.712 267.183 123.132C267.183 127.552 266.299 131.462 264.531 134.862C262.763 138.194 260.451 140.778 257.595 142.614C252.087 146.218 246.205 148.02 239.949 148.02C236.753 148.02 233.727 147.646 230.871 146.898C228.015 146.082 225.703 145.096 223.935 143.94C220.331 141.764 217.815 139.656 216.387 137.616L215.469 136.494Z" fill="#002B36"/>
<path d="M151.623 162.316C161.687 162.316 170.425 165.954 177.837 173.23C185.249 180.506 188.955 189.55 188.955 200.362C188.955 211.106 185.419 220.286 178.347 227.902C171.275 235.45 162.571 239.224 152.235 239.224C141.899 239.224 133.093 235.484 125.817 228.004C118.609 220.524 115.005 211.616 115.005 201.28C115.005 195.636 116.025 190.366 118.065 185.47C120.105 180.506 122.825 176.358 126.225 173.026C129.625 169.694 133.535 167.076 137.955 165.172C142.375 163.268 146.931 162.316 151.623 162.316ZM133.059 200.77C133.059 206.822 134.997 211.752 138.873 215.56C142.817 219.3 147.203 221.17 152.031 221.17C156.859 221.17 161.211 219.334 165.087 215.662C168.963 211.99 170.901 207.06 170.901 200.872C170.901 194.684 168.929 189.72 164.985 185.98C161.109 182.24 156.757 180.37 151.929 180.37C147.101 180.37 142.749 182.274 138.873 186.082C134.997 189.822 133.059 194.718 133.059 200.77Z" fill="#002B36"/>
<path d="M211.672 163.132H268.384C270.56 163.132 272.158 163.404 273.178 163.948C274.198 164.424 274.878 165.206 275.218 166.294C275.558 167.382 275.728 168.81 275.728 170.578C275.728 172.346 275.558 173.774 275.218 174.862C274.878 175.882 274.3 176.596 273.484 177.004C272.26 177.616 270.526 177.922 268.282 177.922H248.8V229.228C248.8 230.792 248.732 231.948 248.596 232.696C248.528 233.444 248.222 234.328 247.678 235.348C247.202 236.3 246.318 236.98 245.026 237.388C243.734 237.796 242.034 238 239.926 238C237.818 238 236.118 237.796 234.826 237.388C233.602 236.98 232.718 236.3 232.174 235.348C231.698 234.328 231.392 233.444 231.256 232.696C231.188 231.88 231.154 230.69 231.154 229.126V177.922H211.57C209.394 177.922 207.796 177.684 206.776 177.208C205.756 176.664 205.076 175.848 204.736 174.76C204.396 173.672 204.226 172.244 204.226 170.476C204.226 168.708 204.396 167.314 204.736 166.294C205.076 165.206 205.654 164.458 206.47 164.05C207.694 163.438 209.428 163.132 211.672 163.132Z" fill="#002B36"/>
<path d="M141.612 310.946H173.028C174.592 310.946 175.748 311.014 176.496 311.15C177.312 311.218 178.23 311.524 179.25 312.068C181.086 313.02 182.004 315.672 182.004 320.024C182.004 324.784 180.746 327.572 178.23 328.388C177.074 328.796 175.306 329 172.926 329H132.534C127.774 329 124.986 327.708 124.17 325.124C123.762 324.036 123.558 322.302 123.558 319.922V263.21C123.558 259.742 124.204 257.396 125.496 256.172C126.788 254.88 129.236 254.234 132.84 254.234H173.028C174.592 254.234 175.748 254.302 176.496 254.438C177.312 254.506 178.23 254.812 179.25 255.356C181.086 256.308 182.004 258.96 182.004 263.312C182.004 268.072 180.746 270.86 178.23 271.676C177.074 272.084 175.306 272.288 172.926 272.288H141.612V282.59H161.808C163.372 282.59 164.528 282.658 165.276 282.794C166.092 282.862 167.01 283.168 168.03 283.712C169.866 284.664 170.784 287.316 170.784 291.668C170.784 296.428 169.492 299.216 166.908 300.032C165.752 300.44 163.984 300.644 161.604 300.644H141.612V310.946Z" fill="#657B83"/>
<path d="M141.612 310.946H173.028C174.592 310.946 175.748 311.014 176.496 311.15C177.312 311.218 178.23 311.524 179.25 312.068C181.086 313.02 182.004 315.672 182.004 320.024C182.004 324.784 180.746 327.572 178.23 328.388C177.074 328.796 175.306 329 172.926 329H132.534C127.774 329 124.986 327.708 124.17 325.124C123.762 324.036 123.558 322.302 123.558 319.922V263.21C123.558 259.742 124.204 257.396 125.496 256.172C126.788 254.88 129.236 254.234 132.84 254.234H173.028C174.592 254.234 175.748 254.302 176.496 254.438C177.312 254.506 178.23 254.812 179.25 255.356C181.086 256.308 182.004 258.96 182.004 263.312C182.004 268.072 180.746 270.86 178.23 271.676C177.074 272.084 175.306 272.288 172.926 272.288H141.612V282.59H161.808C163.372 282.59 164.528 282.658 165.276 282.794C166.092 282.862 167.01 283.168 168.03 283.712C169.866 284.664 170.784 287.316 170.784 291.668C170.784 296.428 169.492 299.216 166.908 300.032C165.752 300.44 163.984 300.644 161.604 300.644H141.612V310.946Z" fill="#657B83"/>
<path d="M141.612 310.946H173.028C174.592 310.946 175.748 311.014 176.496 311.15C177.312 311.218 178.23 311.524 179.25 312.068C181.086 313.02 182.004 315.672 182.004 320.024C182.004 324.784 180.746 327.572 178.23 328.388C177.074 328.796 175.306 329 172.926 329H132.534C127.774 329 124.986 327.708 124.17 325.124C123.762 324.036 123.558 322.302 123.558 319.922V263.21C123.558 259.742 124.204 257.396 125.496 256.172C126.788 254.88 129.236 254.234 132.84 254.234H173.028C174.592 254.234 175.748 254.302 176.496 254.438C177.312 254.506 178.23 254.812 179.25 255.356C181.086 256.308 182.004 258.96 182.004 263.312C182.004 268.072 180.746 270.86 178.23 271.676C177.074 272.084 175.306 272.288 172.926 272.288H141.612V282.59H161.808C163.372 282.59 164.528 282.658 165.276 282.794C166.092 282.862 167.01 283.168 168.03 283.712C169.866 284.664 170.784 287.316 170.784 291.668C170.784 296.428 169.492 299.216 166.908 300.032C165.752 300.44 163.984 300.644 161.604 300.644H141.612V310.946Z" fill="#EEE8D5"/>
<path d="M269.128 316.352C270.148 318.8 270.658 320.568 270.658 321.656C270.658 324.24 268.55 326.416 264.334 328.184C262.158 329.136 260.39 329.612 259.03 329.612C257.738 329.612 256.65 329.306 255.766 328.694C254.95 328.014 254.338 327.334 253.93 326.654C253.25 325.362 250.598 319.208 245.974 308.192L242.812 308.396H229.96V319.922C229.96 321.486 229.892 322.676 229.756 323.492C229.688 324.24 229.382 325.124 228.838 326.144C227.886 327.98 225.234 328.898 220.882 328.898C216.122 328.898 213.334 327.64 212.518 325.124C212.11 323.968 211.906 322.2 211.906 319.82V263.21C211.906 261.646 211.94 260.49 212.008 259.742C212.144 258.926 212.484 258.008 213.028 256.988C213.98 255.152 216.632 254.234 220.984 254.234H243.016C249 254.234 254.814 256.41 260.458 260.762C263.178 262.87 265.422 265.726 267.19 269.33C268.958 272.934 269.842 276.946 269.842 281.366C269.842 289.05 267.292 295.374 262.192 300.338C263.688 303.942 266 309.28 269.128 316.352ZM229.96 290.342H243.016C244.988 290.342 246.96 289.594 248.932 288.098C250.904 286.602 251.89 284.358 251.89 281.366C251.89 278.374 250.904 276.13 248.932 274.634C246.96 273.07 244.92 272.288 242.812 272.288H229.96V290.342Z" fill="#657B83"/>
<path d="M269.128 316.352C270.148 318.8 270.658 320.568 270.658 321.656C270.658 324.24 268.55 326.416 264.334 328.184C262.158 329.136 260.39 329.612 259.03 329.612C257.738 329.612 256.65 329.306 255.766 328.694C254.95 328.014 254.338 327.334 253.93 326.654C253.25 325.362 250.598 319.208 245.974 308.192L242.812 308.396H229.96V319.922C229.96 321.486 229.892 322.676 229.756 323.492C229.688 324.24 229.382 325.124 228.838 326.144C227.886 327.98 225.234 328.898 220.882 328.898C216.122 328.898 213.334 327.64 212.518 325.124C212.11 323.968 211.906 322.2 211.906 319.82V263.21C211.906 261.646 211.94 260.49 212.008 259.742C212.144 258.926 212.484 258.008 213.028 256.988C213.98 255.152 216.632 254.234 220.984 254.234H243.016C249 254.234 254.814 256.41 260.458 260.762C263.178 262.87 265.422 265.726 267.19 269.33C268.958 272.934 269.842 276.946 269.842 281.366C269.842 289.05 267.292 295.374 262.192 300.338C263.688 303.942 266 309.28 269.128 316.352ZM229.96 290.342H243.016C244.988 290.342 246.96 289.594 248.932 288.098C250.904 286.602 251.89 284.358 251.89 281.366C251.89 278.374 250.904 276.13 248.932 274.634C246.96 273.07 244.92 272.288 242.812 272.288H229.96V290.342Z" fill="#657B83"/>
<path d="M269.128 316.352C270.148 318.8 270.658 320.568 270.658 321.656C270.658 324.24 268.55 326.416 264.334 328.184C262.158 329.136 260.39 329.612 259.03 329.612C257.738 329.612 256.65 329.306 255.766 328.694C254.95 328.014 254.338 327.334 253.93 326.654C253.25 325.362 250.598 319.208 245.974 308.192L242.812 308.396H229.96V319.922C229.96 321.486 229.892 322.676 229.756 323.492C229.688 324.24 229.382 325.124 228.838 326.144C227.886 327.98 225.234 328.898 220.882 328.898C216.122 328.898 213.334 327.64 212.518 325.124C212.11 323.968 211.906 322.2 211.906 319.82V263.21C211.906 261.646 211.94 260.49 212.008 259.742C212.144 258.926 212.484 258.008 213.028 256.988C213.98 255.152 216.632 254.234 220.984 254.234H243.016C249 254.234 254.814 256.41 260.458 260.762C263.178 262.87 265.422 265.726 267.19 269.33C268.958 272.934 269.842 276.946 269.842 281.366C269.842 289.05 267.292 295.374 262.192 300.338C263.688 303.942 266 309.28 269.128 316.352ZM229.96 290.342H243.016C244.988 290.342 246.96 289.594 248.932 288.098C250.904 286.602 251.89 284.358 251.89 281.366C251.89 278.374 250.904 276.13 248.932 274.634C246.96 273.07 244.92 272.288 242.812 272.288H229.96V290.342Z" fill="#EEE8D5"/>
</svg>
