<?xml version="1.0" standalone="no"?>
<!DOCTYPE svg PUBLIC "-//W3C//DTD SVG 20010904//EN"
 "http://www.w3.org/TR/2001/REC-SVG-20010904/DTD/svg10.dtd">
<svg version="1.0" xmlns="http://www.w3.org/2000/svg"
 width="1200.000000pt" height="1200.000000pt" viewBox="0 0 1200.000000 1200.000000"
 preserveAspectRatio="xMidYMid meet">
<metadata>
Created by potrace 1.14, written by Peter Selinger 2001-2017
</metadata>
<g transform="translate(0.000000,1200.000000) scale(0.100000,-0.100000)"
fill="#000000" stroke="none">
<path d="M7490 11153 c-258 -25 -426 -88 -583 -218 -131 -108 -245 -285 -293
-455 -29 -99 -26 -355 4 -468 41 -149 103 -261 199 -356 68 -68 118 -100 258
-167 151 -71 316 -127 501 -168 205 -46 303 -89 363 -156 40 -46 50 -87 40
-163 -17 -122 -82 -197 -202 -234 -87 -26 -249 -22 -312 8 -71 33 -148 90
-221 161 -91 90 -165 148 -228 180 -41 21 -60 24 -110 21 -87 -6 -130 -30
-227 -129 -111 -112 -144 -174 -136 -259 3 -36 15 -77 32 -108 35 -64 151
-208 207 -256 74 -65 245 -173 325 -206 307 -128 697 -126 1002 5 395 169 591
464 591 889 0 142 -17 243 -59 352 -53 135 -157 266 -261 327 -118 69 -457
176 -675 212 -287 49 -419 150 -402 310 14 136 129 215 312 215 131 0 193 -25
298 -118 22 -18 71 -49 110 -68 123 -59 212 -45 314 49 93 86 193 256 193 330
0 45 -28 104 -75 156 -48 53 -169 143 -240 179 -188 95 -514 156 -725 135z"/>
<path d="M3236 11099 c-54 -6 -98 -17 -135 -36 -49 -24 -60 -36 -86 -88 l-30
-60 0 -1295 c0 -1064 2 -1302 14 -1333 34 -99 119 -145 286 -154 165 -9 286
19 342 79 55 58 57 79 61 421 l3 317 306 0 c268 0 317 2 405 20 168 35 322
106 483 225 254 187 395 484 395 830 0 376 -156 677 -452 876 -175 116 -343
180 -529 199 -118 12 -947 11 -1063 -1z m1129 -743 c137 -67 206 -179 206
-331 0 -155 -67 -261 -209 -328 l-67 -32 -302 -3 -303 -4 0 367 0 366 308 -3
307 -3 60 -29z"/>
<path d="M3865 7484 c-398 -70 -752 -300 -975 -632 -55 -83 -152 -286 -185
-386 -85 -263 -101 -572 -45 -848 99 -484 481 -927 946 -1096 173 -63 266 -77
509 -77 206 1 227 2 329 28 308 77 549 227 754 470 176 208 283 427 344 707
20 92 23 133 23 330 0 250 -15 354 -77 529 -146 414 -507 770 -927 915 -202
70 -496 95 -696 60z m425 -720 c211 -64 410 -238 500 -438 50 -111 65 -196 65
-361 0 -180 -16 -259 -80 -390 -92 -191 -288 -349 -501 -405 -212 -55 -449 0
-636 148 -216 172 -310 397 -295 706 7 147 23 213 84 336 39 81 60 109 142
191 132 132 254 201 406 229 71 13 250 4 315 -16z"/>
<path d="M6340 7454 c-30 -8 -64 -21 -76 -29 -50 -32 -80 -159 -69 -293 10
-130 36 -185 102 -218 35 -18 74 -19 503 -24 l465 -5 5 -1110 c5 -1053 6
-1112 24 -1152 43 -100 129 -135 326 -135 205 0 278 31 322 140 l23 57 3 1102
3 1102 462 3 462 3 49 25 c64 32 86 74 95 181 8 98 -3 229 -24 268 -20 41 -59
68 -118 86 -75 22 -2474 21 -2557 -1z"/>
<path d="M4008 4113 l-1858 -3 0 -1930 0 -1930 3850 0 3850 0 0 1935 0 1935
-1992 -2 c-1096 -2 -2829 -4 -3850 -5z m1136 -297 c118 -45 160 -136 160 -346
0 -142 -15 -211 -63 -276 -34 -49 -75 -69 -161 -83 -41 -7 -313 -11 -727 -11
l-663 0 0 -199 0 -200 493 -3 492 -3 55 -30 c67 -37 98 -88 116 -189 33 -183
0 -371 -78 -443 -13 -12 -41 -30 -63 -40 -36 -16 -84 -18 -527 -21 l-488 -3 0
-199 0 -199 708 -3 707 -3 53 -24 c90 -40 120 -88 143 -230 13 -82 11 -162 -7
-249 -20 -99 -52 -154 -110 -188 -70 -41 -199 -46 -1149 -42 l-850 3 -60 24
c-77 31 -128 81 -151 151 -18 52 -19 122 -22 1260 -2 845 0 1230 8 1290 12 93
40 167 73 199 31 28 105 59 168 70 30 5 458 8 974 7 874 -1 922 -2 969 -20z
m2744 9 c375 -57 716 -318 852 -654 61 -150 75 -227 74 -431 0 -168 -3 -194
-27 -285 -37 -137 -110 -281 -196 -387 l-71 -88 34 -82 c19 -46 83 -193 141
-328 170 -389 184 -445 130 -535 -44 -76 -172 -156 -325 -204 -132 -42 -246
-15 -310 72 -24 32 -230 500 -315 715 l-17 42 -314 0 -314 0 0 -222 c-1 -441
-19 -507 -155 -570 -46 -21 -64 -23 -215 -23 l-165 0 -67 33 c-37 18 -76 45
-86 60 -49 70 -47 13 -50 1382 -2 1191 -1 1288 15 1339 19 61 60 114 106 138
70 36 158 41 677 42 388 0 527 -3 598 -14z"/>
<path d="M7230 2746 l0 -356 248 0 c136 0 274 4 306 10 129 21 243 107 281
210 31 86 27 217 -9 292 -33 69 -88 119 -176 162 l-65 31 -292 3 -293 3 0
-355z"/>
</g>
</svg>
